<?xml version="1.0" standalone="no"?><!DOCTYPE svg PUBLIC "-//W3C//DTD SVG 1.1//EN" "http://www.w3.org/Graphics/SVG/1.1/DTD/svg11.dtd"><svg t="1584498266719" class="icon" viewBox="0 0 1024 1024" version="1.1" xmlns="http://www.w3.org/2000/svg" p-id="27725" xmlns:xlink="http://www.w3.org/1999/xlink" width="200" height="200"><defs><style type="text/css"></style></defs><path d="M854.2 817.8c0 73.1-156.1 120.9-348.7 120.9s-348.7-47.8-348.7-120.9S313 673.9 505.6 673.9s348.6 70.7 348.6 143.9z" fill="#A15200" p-id="27726"></path><path d="M505.6 943.7c-95.8 0-183.9-11.8-248.1-33.3-32.8-11-58.5-24.1-76.3-39.1-19.4-16.2-29.2-34.2-29.2-53.6 0-37.7 38.3-75.5 105.2-104 68.1-29 156.4-44.9 248.5-44.9s180.4 16 248.5 44.9c66.8 28.4 105.2 66.3 105.2 104 0 19.3-9.8 37.4-29.2 53.6-17.9 15-43.5 28.1-76.3 39.1-64.4 21.5-152.5 33.3-248.3 33.3z m0-264.8c-90.8 0-177.7 15.7-244.6 44.1-63 26.8-99.1 61.3-99.1 94.8 0 32.3 35.1 61.9 98.7 83.2 63.2 21.1 150.2 32.8 245 32.8 94.7 0 181.7-11.6 245-32.8 63.7-21.3 98.7-50.8 98.7-83.2 0-33.4-36.1-68-99.1-94.8-66.9-28.4-153.8-44.1-244.6-44.1z" p-id="27727"></path><path d="M760.6 413.4a113.7 126.8 0 1 0 227.4 0 113.7 126.8 0 1 0-227.4 0Z" fill="#A25500" p-id="27728"></path><path d="M874.3 545.1c-65.4 0-118.7-59.1-118.7-131.8 0-72.7 53.2-131.8 118.7-131.8S993 340.7 993 413.4c0 72.6-53.3 131.7-118.7 131.7z m0-253.5c-59.9 0-108.7 54.6-108.7 121.8 0 67.1 48.7 121.8 108.7 121.8S983 480.5 983 413.4c0-67.2-48.8-121.8-108.7-121.8z" fill="#2C3216" p-id="27729"></path><path d="M809 413.4a65.3 72.8 0 1 0 130.6 0 65.3 72.8 0 1 0-130.6 0Z" fill="#FF9553" p-id="27730"></path><path d="M36 413.4a113.7 126.8 0 1 0 227.4 0 113.7 126.8 0 1 0-227.4 0Z" fill="#A25500" p-id="27731"></path><path d="M149.7 545.1C84.3 545.1 31 486 31 413.4c0-72.7 53.2-131.8 118.7-131.8 65.4 0 118.7 59.1 118.7 131.8 0 72.6-53.3 131.7-118.7 131.7z m0-253.5C89.8 291.6 41 346.2 41 413.4c0 67.1 48.7 121.8 108.7 121.8s108.7-54.6 108.7-121.8c0-67.2-48.8-121.8-108.7-121.8z" fill="#2C3216" p-id="27732"></path><path d="M84.4 413.4a65.3 72.8 0 1 0 130.6 0 65.3 72.8 0 1 0-130.6 0Z" fill="#FF9553" p-id="27733"></path><path d="M860.2 500.9c0 172.2-156.1 284.8-348.7 284.8S162.9 673.2 162.9 500.9 319 162.1 511.6 162.1s348.6 166.6 348.6 338.8z" fill="#A15200" p-id="27734"></path><path d="M511.6 790.8c-96.4 0-185-28-249.6-78.9-32.8-25.8-58.4-56.6-76.1-91.5C167.4 583.9 158 543.7 158 501c0-85 37.8-171.6 103.6-237.5 32.8-32.9 70.6-58.8 112.4-77.2 44.1-19.3 90.4-29.1 137.7-29.1 47.3 0 93.7 9.8 137.7 29.1 41.7 18.3 79.5 44.3 112.4 77.2C827.6 329.4 865.4 416 865.4 501c0 42.7-9.4 82.9-27.9 119.4-17.7 34.9-43.3 65.7-76.1 91.5-64.8 50.8-153.5 78.9-249.8 78.9z m0-623.7c-45.9 0-90.9 9.5-133.7 28.3-40.6 17.8-77.3 43.1-109.3 75.1-64 64.1-100.7 148.1-100.7 230.5 0 41.1 9 79.8 26.9 114.9 17 33.6 41.7 63.3 73.4 88.2 62.9 49.5 149.3 76.8 243.4 76.8S692.2 753.5 755 704c31.6-24.9 56.3-54.6 73.4-88.2 17.8-35.1 26.9-73.8 26.9-114.9 0-82.4-36.7-166.4-100.7-230.5-32-32-68.7-57.3-109.3-75.1-42.8-18.7-87.8-28.2-133.7-28.2z" fill="#2C3216" p-id="27735"></path><path d="M772.9 420.5c-24.9-64.8-88.8-108.6-158.2-108.6-38.8 0-74.6 13.1-103.1 35-28.6-22-64.3-35-103.1-35-69.4 0-133.3 43.9-158.2 108.6-10.5 27.3-11.9 56.7-10.9 85.6 0.9 27.4 0.2 57.6 10.6 83.3 10.8 26.7 31.1 48.3 54.4 64.8 59.1 41.8 136.2 55.3 207.3 55.4 71-0.2 148.2-13.6 207.3-55.4 23.3-16.4 43.6-38.1 54.4-64.8 10.4-25.8 9.6-55.9 10.6-83.3 0.8-28.9-0.6-58.3-11.1-85.6z" fill="#FFC87D" p-id="27736"></path><path d="M595.771 433.01l3.494-11.48 112.987 34.39-3.495 11.481zM315.94 455.937l112.985-34.39 3.495 11.48-112.987 34.39zM487.6 563.2c-1.8 0-3.5-0.1-5.4-0.2-17.9-1.4-33.9-9.9-41.8-22.2-1.5-2.3-0.8-5.4 1.5-6.9s5.4-0.8 6.9 1.5c6.3 9.7 19.4 16.5 34.2 17.6 13.5 1.1 25.7-2.8 32.6-10.5 1.8-2 5-2.2 7.1-0.4 2 1.9 2.2 5 0.4 7.1-8.1 9.1-20.9 14-35.5 14z" p-id="27737"></path><path d="M552.5 563.2c-14.6 0-27.4-5-35.5-13.9-1.9-2-1.7-5.2 0.4-7.1 2-1.9 5.2-1.7 7.1 0.4 6.9 7.6 19.1 11.6 32.6 10.5 14.8-1.2 27.9-8 34.2-17.6 1.5-2.3 4.6-3 6.9-1.5 2.3 1.5 3 4.6 1.5 6.9-7.9 12.2-24 20.7-41.8 22.2-1.8 0.1-3.6 0.1-5.4 0.1z" p-id="27738"></path><path d="M283.306 565.51l13.304-13.983 2.898 2.757-13.304 13.983zM300.843 567.015l21.644-22.75 2.898 2.758-21.644 22.749zM325.01 561.653l16.612-17.46 2.898 2.756-16.612 17.46zM344.62 561.014l21.645-22.75 2.898 2.758-21.644 22.75zM369.848 554.631l14.82-15.577 2.898 2.758-14.82 15.576z" fill="#FF9653" p-id="27739"></path><path d="M740.692 554.178l2.898-2.757 13.303 13.983-2.898 2.757zM714.67 547.027l2.898-2.756 21.641 22.749-2.898 2.757zM695.618 546.966l2.898-2.757 16.61 17.46-2.899 2.757zM670.912 540.99l2.898-2.757 21.644 22.75-2.898 2.757zM652.488 541.76l2.898-2.757 14.818 15.577-2.898 2.757z" fill="#FF9653" p-id="27740"></path><path d="M75 594.9v-16c0-11.2 9.9-19.9 21.1-18.3C171.9 571.5 430.4 620.1 512 785v48S85 669.8 75 594.9z" fill="#F2F2F2" p-id="27741"></path><path d="M515.5 838.1l-4.7-1.8c-1.1-0.4-108.1-41.4-215-91-62.8-29.3-113.3-55.7-150.1-78.6-47.4-29.6-71.7-52.9-74.1-71.3v-16.5c0-6.4 2.8-12.4 7.6-16.6 4.8-4.2 11.2-6 17.5-5.1C174 568.3 433 617.5 515.1 783.4l0.4 0.7v54z m-437-243.4c3 20.6 43.8 62.2 220.2 144.2 93.9 43.6 187.9 80.5 209.8 89v-42.1c-34.6-69.3-104.6-125.7-207.9-167.5-82.6-33.4-163.9-48.3-205-54.2-4.3-0.6-8.6 0.7-11.9 3.5-3.3 2.8-5.2 7-5.2 11.3v15.8z" p-id="27742"></path><path d="M949 594.9v-16c0-11.2-9.9-19.9-21.1-18.3C852.1 571.5 593.6 620.1 512 785v48s427-163.2 437-238.1z" fill="#F2F2F2" p-id="27743"></path><path d="M508.5 838.1v-53.9l0.4-0.7C591 617.5 850 568.3 927.4 557.2c6.3-0.9 12.7 1 17.5 5.1 4.8 4.2 7.6 10.2 7.6 16.6v16.4c-2.5 18.4-26.7 41.8-74.1 71.3-36.8 22.9-87.3 49.4-150.1 78.5-106.9 49.6-213.9 90.6-215 91l-4.8 2z m7-52.3v42.1c21.9-8.5 115.9-45.4 209.8-89C901.7 657 942.5 615.3 945.5 594.7V579c0-4.3-1.9-8.5-5.2-11.3-3.3-2.8-7.6-4.1-11.9-3.5-76.5 10.9-331.8 59.3-412.9 221.6z" p-id="27744"></path><path d="M178.4 1024c-9.4-28.9-18.7-57.7-28.1-86.6-18.8-57.9-37.6-115.9-56.4-173.8-8.6-26.5-17.2-53-25.8-79.4-4.6-14.3-10.4-28.3-15.1-42.6-3.5-10.7-10.9-26.9-4.2-37.6 10.2-16 36.8-6.5 51.5-3.9 18.3 3.2 36.4 7.7 54.3 12.8 58.1 16.8 114.2 40.7 168.5 67.1 64.8 31.5 127.5 67.2 188.9 105v239H178.4z" fill="#C1272D" p-id="27745"></path><path d="M845.6 1024c9.4-28.9 18.7-57.7 28.1-86.6 18.8-57.9 37.6-115.9 56.4-173.8 8.6-26.5 17.2-53 25.8-79.4 4.6-14.3 10.4-28.3 15.1-42.6 3.5-10.7 10.9-26.9 4.2-37.6-10.2-16-36.8-6.5-51.5-3.9-18.3 3.2-36.4 7.7-54.3 12.8-58.1 16.8-114.2 40.7-168.5 67.1-64.8 31.5-127.5 67.2-188.9 105v239h333.6z" fill="#C6492D" p-id="27746"></path><path d="M80.327223 806.074454a58.5 45.5 73.285 1 0 87.154998-26.172625 58.5 45.5 73.285 1 0-87.154998 26.172625Z" fill="#FFCA7E" p-id="27747"></path><path d="M130.4 853.5c-22.3 0-44.6-18.8-53-46.6-9.8-32.5 3.1-65.2 28.8-72.9 25.6-7.7 54.4 12.5 64.1 45 4.7 15.6 4.4 31.7-0.9 45.4-5.4 13.9-15.3 23.7-27.8 27.5-3.7 1.1-7.5 1.6-11.2 1.6z m-22.5-113.7c-22.4 6.7-33.5 36.1-24.7 65.4 8.8 29.3 34.2 47.7 56.7 40.9 10.7-3.2 19.2-11.7 24-23.9 4.8-12.4 5.1-27.2 0.8-41.5-8.9-29.3-34.4-47.6-56.8-40.9z" p-id="27748"></path><path d="M150.1 809.3c-8.7 0-17-2.9-23.7-8.7-1.3-1.1-1.4-3-0.3-4.2 1.1-1.3 3-1.4 4.2-0.3 10.1 8.7 24.5 9.6 37.6 2.5 1.5-0.8 3.3-0.2 4.1 1.2 0.8 1.5 0.2 3.3-1.2 4.1-6.8 3.6-13.9 5.4-20.7 5.4z" p-id="27749"></path><path d="M146.4 782.1c-8.7 0-17-2.9-23.7-8.7-1.3-1.1-1.4-3-0.3-4.2 1.1-1.3 3-1.4 4.2-0.3 10.1 8.7 24.5 9.6 37.6 2.5 1.5-0.8 3.3-0.2 4.1 1.2 0.8 1.5 0.2 3.3-1.2 4.1-6.8 3.6-13.8 5.4-20.7 5.4z" p-id="27750"></path><path d="M898.337011 849.097931a45.5 58.5 16.715 1 0 33.650519-112.056426 45.5 58.5 16.715 1 0-33.650519 112.056426Z" fill="#FFCA7E" p-id="27751"></path><path d="M908.6 853.5c-3.8 0-7.5-0.5-11.2-1.6-12.5-3.8-22.4-13.5-27.8-27.5-5.3-13.7-5.6-29.8-0.9-45.4 9.8-32.5 38.5-52.7 64.1-45 25.6 7.7 38.5 40.4 28.8 72.9-8.4 27.8-30.7 46.6-53 46.6z m13-115.1c-19.7 0-39.6 17.1-47.1 42.3-4.3 14.3-4 29.1 0.8 41.5 4.7 12.2 13.2 20.7 24 23.9 22.5 6.7 47.9-11.6 56.7-40.9 8.8-29.3-2.3-58.6-24.7-65.4-3.3-1-6.5-1.4-9.7-1.4z" p-id="27752"></path><path d="M888.9 809.3c-6.8 0-13.9-1.8-20.7-5.5-1.5-0.8-2-2.6-1.2-4.1 0.8-1.5 2.6-2 4.1-1.2 13.1 7.1 27.5 6.1 37.6-2.5 1.3-1.1 3.1-0.9 4.2 0.3 1.1 1.3 0.9 3.2-0.3 4.2-6.7 5.9-15 8.8-23.7 8.8z" p-id="27753"></path><path d="M892.6 782.1c-6.8 0-13.9-1.8-20.7-5.5-1.5-0.8-2-2.6-1.2-4.1 0.8-1.5 2.6-2 4.1-1.2 13.1 7.1 27.5 6.1 37.6-2.5 1.3-1.1 3.2-0.9 4.2 0.3 1.1 1.3 0.9 3.2-0.3 4.2-6.7 5.9-15 8.8-23.7 8.8z" p-id="27754"></path></svg>