<?xml version="1.0" standalone="no"?><!DOCTYPE svg PUBLIC "-//W3C//DTD SVG 1.1//EN" "http://www.w3.org/Graphics/SVG/1.1/DTD/svg11.dtd"><svg t="1584605596880" class="icon" viewBox="0 0 1024 1024" version="1.1" xmlns="http://www.w3.org/2000/svg" p-id="9155" xmlns:xlink="http://www.w3.org/1999/xlink" width="200" height="200"><defs><style type="text/css"></style></defs><path d="M254.442667 589.184C214.634667 534.826667 166.037333 416.085333 251.968 319.36c105.770667-118.954667 293.546667-63.914667 296.32-63.232 2.773333 0.682667 169.856 39.850667 221.013333 257.194667 49.749333 211.456-72.106667 383.658667-125.44 428.544-38.698667 32.512-98.986667 80.085333-184.704 82.048-113.792 2.56-144.981333-55.850667-154.794666-147.328-3.712-34.346667 2.346667-91.733333 1.536-138.154667-0.853333-46.421333-29.098667-118.741333-51.456-149.248zM85.354667 129.834667a120.149333 120.149333 0 1 0 240.256 0 120.149333 120.149333 0 0 0-240.256 0z" fill="#F7B500" p-id="9156"></path><path d="M370.368 90.410667a89.386667 89.386667 0 1 0 178.816 0 89.386667 89.386667 0 0 0-178.773333 0zM584.896 133.930667a89.429333 89.429333 0 1 0 178.816 0 89.429333 89.429333 0 0 0-178.773333 0zM752.789333 278.186667a89.386667 89.386667 0 1 0 178.773334 0 89.386667 89.386667 0 0 0-178.773334 0z" fill="#F7B500" p-id="9157"></path></svg>